<?xml version="1.0" encoding="UTF-8"?><svg id="Layer_1" xmlns="http://www.w3.org/2000/svg" xmlns:xlink="http://www.w3.org/1999/xlink" viewBox="0 0 1000 1000"><defs><style>.cls-1{fill:#fff;}.cls-2{stroke:#fff;stroke-miterlimit:10;stroke-width:30px;}.cls-2,.cls-3{fill:none;}</style><clipPath id="clippath"><path class="cls-3" d="M-692.53,489.38v321.86h74.71V489.38c0-124.57,101.34-225.91,225.9-225.91s225.92,101.35,225.92,225.91v321.86H-91.3V489.38c0-165.75-134.85-300.62-300.62-300.62s-300.61,134.86-300.61,300.62"/></clipPath><clipPath id="clippath-2"><path class="cls-3" d="M-692.53,489.38v321.86h74.71V489.38c0-124.57,101.34-225.91,225.9-225.91s225.92,101.35,225.92,225.91v321.86H-91.3V489.38c0-165.75-134.85-300.62-300.62-300.62s-300.61,134.86-300.61,300.62"/></clipPath><clipPath id="clippath-4"><path class="cls-3" d="M-948.59,489.38v321.86h74.7V489.38c0-124.57,101.35-225.91,225.91-225.91s225.92,101.35,225.92,225.91v321.86h74.7V489.38c0-165.75-134.86-300.62-300.62-300.62s-300.61,134.86-300.61,300.62"/></clipPath></defs><g id="Group_6" transform="translate(2)"><path id="Fill_94" class="cls-1" d="M563.21,668.54h-126.42c-58.15-.06-105.27-47.18-105.33-105.33v-126.42c.06-58.15,47.18-105.27,105.33-105.33h126.4c58.15,.06,105.27,47.18,105.33,105.33v126.4c-.06,58.15-47.17,105.27-105.32,105.35Zm-126.42-305.44c-40.67,.07-73.62,33.02-73.69,73.69v126.4c.05,40.69,33.01,73.66,73.69,73.73h126.4c40.7-.05,73.67-33.03,73.72-73.72v-126.42c-.07-40.67-33.03-73.63-73.71-73.69h-126.42Z"/><path id="Fill_96" class="cls-1" d="M499.99,584.26c-46.54,0-84.26-37.74-84.25-84.28,0-46.54,37.74-84.26,84.28-84.25,46.53,0,84.24,37.72,84.25,84.25-.05,46.53-37.75,84.23-84.28,84.28Zm0-136.94c-29.09,0-52.67,23.58-52.67,52.67s23.58,52.67,52.67,52.67,52.67-23.58,52.67-52.67c-.06-29.06-23.61-52.59-52.67-52.62v-.04Z"/><path id="Fill_98" class="cls-1" d="M590.6,398.18c2.99-.05,5.86,1.15,7.94,3.29,2.15,2.08,3.34,4.95,3.29,7.94,.05,2.99-1.15,5.86-3.29,7.94-2.08,2.15-4.95,3.34-7.94,3.29-2.99,.05-5.86-1.15-7.94-3.29-2.15-2.08-3.34-4.95-3.29-7.94-.05-2.99,1.15-5.86,3.29-7.94,2.08-2.15,4.95-3.34,7.94-3.29Z"/></g><circle class="cls-2" cx="500.01" cy="499.99" r="461.11"/></svg>