<?xml version="1.0" encoding="UTF-8"?><svg xmlns="http://www.w3.org/2000/svg" xmlns:xlink="http://www.w3.org/1999/xlink" viewBox="0 0 1000 1000"><defs><style>.cls-1{fill:url(#linear-gradient-2);}.cls-2{clip-path:url(#clippath-11);}.cls-3{clip-path:url(#clippath-2);}.cls-4,.cls-5{isolation:isolate;}.cls-6{clip-path:url(#clippath-6);}.cls-7{clip-path:url(#clippath-7);}.cls-8{clip-path:url(#clippath-1);}.cls-9{clip-path:url(#clippath-4);}.cls-10{clip-path:url(#clippath-9);}.cls-11{clip-path:url(#clippath);}.cls-12{fill:none;}.cls-13{clip-path:url(#clippath-3);}.cls-14{fill:#ce8129;}.cls-15{clip-path:url(#clippath-8);}.cls-16{fill:url(#linear-gradient-3);}.cls-17{clip-path:url(#clippath-5);}.cls-18{fill:url(#linear-gradient);}.cls-19{clip-path:url(#clippath-10);}.cls-20{fill:url(#linear-gradient-4);}.cls-5{mix-blend-mode:multiply;}.cls-21{opacity:.71;}</style><linearGradient id="linear-gradient" x1="44.6" y1="946.33" x2="883.17" y2="404.06" gradientTransform="matrix(1, 0, 0, 1, 0, 0)" gradientUnits="userSpaceOnUse"><stop offset=".27" stop-color="#f8d038"/><stop offset="1" stop-color="#f27123"/></linearGradient><clipPath id="clippath"><path class="cls-12" d="M327.47,489.38v321.86h74.71V489.38c0-124.57,101.34-225.91,225.9-225.91s225.92,101.35,225.92,225.91v321.86h74.7V489.38c0-165.75-134.85-300.62-300.62-300.62s-300.61,134.86-300.61,300.62"/></clipPath><clipPath id="clippath-1"><rect class="cls-12" x="-2912" y="-1439.66" width="6825" height="4831"/></clipPath><clipPath id="clippath-2"><rect class="cls-12" x="840.94" y="546.24" width="113.48" height="316.12"/></clipPath><clipPath id="clippath-3"><rect class="cls-12" x="848.72" y="549.58" width="81.39" height="264.15"/></clipPath><clipPath id="clippath-4"><path class="cls-12" d="M327.47,489.38v321.86h74.71V489.38c0-124.57,101.34-225.91,225.9-225.91s225.92,101.35,225.92,225.91v321.86h74.7V489.38c0-165.75-134.85-300.62-300.62-300.62s-300.61,134.86-300.61,300.62"/></clipPath><clipPath id="clippath-5"><rect class="cls-12" x="-2912" y="-1439.66" width="6825" height="4831"/></clipPath><clipPath id="clippath-6"><rect class="cls-12" x="378.92" y="262.54" width="137.8" height="81.06"/></clipPath><clipPath id="clippath-7"><rect class="cls-12" x="383.3" y="265.23" width="128.65" height="75.55"/></clipPath><clipPath id="clippath-8"><path class="cls-12" d="M71.41,489.38v321.86h74.7V489.38c0-124.57,101.35-225.91,225.91-225.91s225.92,101.35,225.92,225.91v321.86h74.7V489.38c0-165.75-134.86-300.62-300.62-300.62S71.41,323.62,71.41,489.38"/></clipPath><clipPath id="clippath-9"><rect class="cls-12" x="-2912" y="-1439.66" width="6825" height="4831"/></clipPath><clipPath id="clippath-10"><rect class="cls-12" x="581.56" y="562.45" width="113.48" height="89.16"/></clipPath><clipPath id="clippath-11"><rect class="cls-12" x="584.28" y="566.41" width="94.54" height="80.61"/></clipPath><linearGradient id="linear-gradient-2" x1="-104.12" y1="660.41" x2="438.27" y2="660.41" gradientTransform="matrix(1, 0, 0, 1, 0, 0)" gradientUnits="userSpaceOnUse"><stop offset=".37" stop-color="#f8d038"/><stop offset="1" stop-color="#f27123"/></linearGradient><linearGradient id="linear-gradient-3" x1="-88.85" y1="883.9" x2="604.36" y2="411.51" xlink:href="#linear-gradient-2"/><linearGradient id="linear-gradient-4" x1="329.64" x2="928.48" xlink:href="#linear-gradient-2"/></defs><g class="cls-4"><g id="Layer_1"><g><path class="cls-18" d="M329.64,489.42v320.7h74.44V489.42c0-124.12,100.97-225.1,225.08-225.1s225.11,100.98,225.11,225.1v320.7h74.43V489.42c0-165.16-134.37-299.53-299.54-299.53s-299.52,134.38-299.52,299.53"/><g class="cls-21"><g class="cls-11"><g class="cls-8"><g class="cls-5"><g class="cls-3"><g class="cls-13"><path class="cls-14" d="M848.71,549.58v156.41c26.76,45.63,42.17,98.69,42.17,155.3h59.75v-37.63c0-179.59-59.68-237.99-101.92-274.08"/></g></g></g></g></g><g class="cls-9"><g class="cls-17"><g class="cls-5"><g class="cls-6"><g class="cls-7"><path class="cls-14" d="M418.06,265.23c-12.4,11.53-24.04,23.88-34.76,37.01,31.86,7.68,61.6,20.86,88.12,38.53,12.36-12.57,25.99-23.85,40.54-33.89-28.01-19.36-59.74-33.66-93.9-41.66"/></g></g></g></g></g><g class="cls-15"><g class="cls-10"><g class="cls-5"><g class="cls-19"><g class="cls-2"><path class="cls-14" d="M690.81,647.02l-10.76-66.85-95.77-13.76v53.54c32.78-3.03,76.68,6.07,106.53,27.07"/></g></g></g></g></g></g><path class="cls-1" d="M71.41,810.12h74.43c0-124.06,100.93-224.98,224.98-224.98s224.99,100.92,224.99,224.98h74.43c0-165.1-134.32-299.41-299.43-299.41S71.41,645.02,71.41,810.12"/><path class="cls-16" d="M71.3,489.42v320.7h74.43V489.42c0-124.12,100.98-225.1,225.09-225.1s225.11,100.98,225.11,225.1v318.43c.17,.76,.32,1.49,.49,2.27h73.94V489.42c0-165.16-134.38-299.53-299.54-299.53S71.3,324.26,71.3,489.42"/><path class="cls-20" d="M329.64,810.12h74.44c0-124.06,100.92-224.98,224.98-224.98s224.99,100.92,224.99,224.98h74.43c0-165.1-134.32-299.41-299.42-299.41s-299.42,134.31-299.42,299.41"/></g></g></g></svg>