<?xml version="1.0" encoding="UTF-8"?><svg xmlns="http://www.w3.org/2000/svg" xmlns:xlink="http://www.w3.org/1999/xlink" viewBox="0 0 1080 415.29"><defs><style>.cls-1{fill:url(#linear-gradient-2);}.cls-2{clip-path:url(#clippath-11);}.cls-3{fill:#fff;}.cls-4{clip-path:url(#clippath-2);}.cls-5,.cls-6{isolation:isolate;}.cls-7{clip-path:url(#clippath-6);}.cls-8{clip-path:url(#clippath-7);}.cls-9{clip-path:url(#clippath-1);}.cls-10{clip-path:url(#clippath-4);}.cls-11{clip-path:url(#clippath-9);}.cls-12{clip-path:url(#clippath);}.cls-13{fill:none;}.cls-14{clip-path:url(#clippath-3);}.cls-15{fill:#ce8129;}.cls-16{clip-path:url(#clippath-8);}.cls-17{fill:url(#linear-gradient-3);}.cls-18{clip-path:url(#clippath-5);}.cls-19{fill:url(#linear-gradient);}.cls-20{clip-path:url(#clippath-10);}.cls-21{fill:url(#linear-gradient-4);}.cls-6{mix-blend-mode:multiply;}.cls-22{opacity:.71;}</style><linearGradient id="linear-gradient" x1="20.11" y1="345.8" x2="330.81" y2="144.88" gradientTransform="matrix(1, 0, 0, 1, 0, 0)" gradientUnits="userSpaceOnUse"><stop offset=".27" stop-color="#f8d038"/><stop offset="1" stop-color="#f27123"/></linearGradient><clipPath id="clippath"><path class="cls-13" d="M124.91,176.49v119.25h27.68v-119.25c0-46.15,37.55-83.7,83.7-83.7s83.71,37.55,83.71,83.7v119.25h27.68v-119.25c0-61.41-49.97-111.38-111.38-111.38s-111.38,49.97-111.38,111.38"/></clipPath><clipPath id="clippath-1"><rect class="cls-13" x="-1075.34" y="-538.24" width="2528.74" height="1789.94"/></clipPath><clipPath id="clippath-2"><rect class="cls-13" x="315.16" y="197.56" width="42.05" height="117.13"/></clipPath><clipPath id="clippath-3"><rect class="cls-13" x="318.04" y="198.8" width="30.16" height="97.87"/></clipPath><clipPath id="clippath-4"><path class="cls-13" d="M124.91,176.49v119.25h27.68v-119.25c0-46.15,37.55-83.7,83.7-83.7s83.71,37.55,83.71,83.7v119.25h27.68v-119.25c0-61.41-49.97-111.38-111.38-111.38s-111.38,49.97-111.38,111.38"/></clipPath><clipPath id="clippath-5"><rect class="cls-13" x="-1075.34" y="-538.24" width="2528.74" height="1789.94"/></clipPath><clipPath id="clippath-6"><rect class="cls-13" x="143.98" y="92.44" width="51.06" height="30.03"/></clipPath><clipPath id="clippath-7"><rect class="cls-13" x="145.6" y="93.44" width="47.67" height="27.99"/></clipPath><clipPath id="clippath-8"><path class="cls-13" d="M30.04,176.49v119.25h27.68v-119.25c0-46.15,37.55-83.7,83.7-83.7s83.71,37.55,83.71,83.7v119.25h27.68v-119.25c0-61.41-49.97-111.38-111.38-111.38S30.04,115.08,30.04,176.49"/></clipPath><clipPath id="clippath-9"><rect class="cls-13" x="-1075.34" y="-538.24" width="2528.74" height="1789.94"/></clipPath><clipPath id="clippath-10"><rect class="cls-13" x="219.06" y="203.56" width="42.05" height="33.04"/></clipPath><clipPath id="clippath-11"><rect class="cls-13" x="220.07" y="205.03" width="35.03" height="29.87"/></clipPath><linearGradient id="linear-gradient-2" x1="-34.99" y1="239.86" x2="165.97" y2="239.86" gradientTransform="matrix(1, 0, 0, 1, 0, 0)" gradientUnits="userSpaceOnUse"><stop offset=".37" stop-color="#f8d038"/><stop offset="1" stop-color="#f27123"/></linearGradient><linearGradient id="linear-gradient-3" x1="-29.34" y1="322.66" x2="227.51" y2="147.64" xlink:href="#linear-gradient-2"/><linearGradient id="linear-gradient-4" x1="125.72" x2="347.59" xlink:href="#linear-gradient-2"/></defs><g class="cls-5"><g id="Layer_1"><g><path class="cls-19" d="M125.72,176.5v118.82h27.58v-118.82c0-45.99,37.41-83.4,83.4-83.4s83.4,37.41,83.4,83.4v118.82h27.58v-118.82c0-61.19-49.78-110.98-110.98-110.98s-110.98,49.79-110.98,110.98"/><g class="cls-22"><g class="cls-12"><g class="cls-9"><g class="cls-6"><g class="cls-4"><g class="cls-14"><path class="cls-15" d="M318.04,198.8v57.95c9.91,16.91,15.63,36.56,15.63,57.54h22.14v-13.94c0-66.54-22.11-88.18-37.76-101.55"/></g></g></g></g></g><g class="cls-10"><g class="cls-18"><g class="cls-6"><g class="cls-7"><g class="cls-8"><path class="cls-15" d="M158.48,93.44c-4.59,4.27-8.91,8.85-12.88,13.71,11.81,2.85,22.82,7.73,32.65,14.28,4.58-4.66,9.63-8.84,15.02-12.56-10.38-7.17-22.13-12.47-34.79-15.43"/></g></g></g></g></g><g class="cls-16"><g class="cls-11"><g class="cls-6"><g class="cls-20"><g class="cls-2"><path class="cls-15" d="M259.54,234.9l-3.99-24.77-35.48-5.1v19.84c12.15-1.12,28.41,2.25,39.47,10.03"/></g></g></g></g></g></g><path class="cls-1" d="M30.04,295.33h27.58c0-45.97,37.4-83.36,83.36-83.36s83.36,37.39,83.36,83.36h27.58c0-61.17-49.77-110.93-110.94-110.93S30.04,234.16,30.04,295.33"/><path class="cls-17" d="M30,176.5v118.82h27.58v-118.82c0-45.99,37.41-83.4,83.4-83.4s83.4,37.41,83.4,83.4v117.98c.06,.28,.12,.55,.18,.84h27.4v-118.82c0-61.19-49.79-110.98-110.98-110.98S30,115.31,30,176.5"/><path class="cls-21" d="M125.72,295.33h27.58c0-45.97,37.39-83.36,83.36-83.36s83.36,37.39,83.36,83.36h27.58c0-61.17-49.77-110.93-110.94-110.93s-110.94,49.76-110.94,110.93"/><g><g><path class="cls-3" d="M826.94,240.15h-38.92c.42-2.7,1.15-4.85,2.25-6.32,1.79-2.37,4.51-3.55,8.14-3.55h3.03v-5.37h-3.19c-.45,0-.83,.07-1.26,.09-.2-6.58-1.61-11.44-4.34-14.41-4.85-5.29-10.86-8.04-13.12-9-1.21,.51-8.68,4.18-13.35,9.08-2.86,3.01-4.34,7.84-4.57,14.33-.43-.02-.81-.09-1.26-.09h-3.19v5.37h3.03c3.63,0,6.35,1.19,8.14,3.55,1.1,1.47,1.83,3.62,2.25,6.32h-36.82v-45.05h-6.8v50.66h106.75v-50.66h-6.8v45.05Zm-42.07-10.46c-2.05,2.32-3.34,5.83-3.9,10.46h-3.32c-.56-4.63-1.84-8.14-3.9-10.46-1.36-1.54-3.12-2.69-5.25-3.48,.05-5.55,1.02-9.46,2.95-11.67,2.3-2.64,2.29-2.47,7.94-6.13,6.11,3.74,6.01,3.53,8.05,6.01,1.74,2.13,2.63,6.08,2.67,11.79-2.13,.8-3.89,1.94-5.25,3.48Z"/><polygon class="cls-3" points="842.85 202.52 842.85 236.28 842.85 245.76 849.65 245.76 849.65 236.76 849.65 203 849.65 195.1 842.85 195.1 842.85 202.52"/><path class="cls-3" d="M614.49,253.36c-.13,.17-.27,.33-.41,.49,.09-.1,.19-.17,.27-.27,.05-.06,.08-.16,.13-.22Z"/><path class="cls-3" d="M684.66,219.26c-2.82,3.19-4.23,8.55-4.23,16.07v4.82h-52.61c-2.36,0-3.55-1.29-3.55-3.87v-21.8l-6.95,.04v33.03c0,5.68-3.48,11.12-8.35,13.62-.23,.12-.45,.23-.68,.32-.43,.19-.88,.33-1.33,.47-1.38,.4-2.86,.58-4.4,.6-.9-.03-1.78-.1-2.61-.24-.42-.07-.81-.18-1.2-.28-.55-.14-1.09-.29-1.6-.47-.49-.18-.96-.37-1.41-.58-.33-.16-.63-.33-.94-.51-.51-.29-1.02-.58-1.48-.92-.67-.5-1.19-1.13-1.74-1.73-1.21,1.13-2.41,2.26-3.59,3.41,.47,.51,.94,1.02,1.46,1.48h0c.92,.8,1.89,1.52,2.94,2.15,.05,.03,.1,.06,.15,.09,.99,.58,2,1.11,3.08,1.53,.36,.14,.74,.22,1.1,.34,.82,.27,1.64,.56,2.5,.72,1.29,.26,2.62,.4,3.99,.4,11.65,0,20.69-9.47,20.69-21.12v-1.43c.74,.13,1.41,.34,2.28,.34h90.72v-31.28h-18.83c-6.11,0-10.57,1.59-13.39,4.78Zm25.27,.59v20.3h-22.55v-4.82c0-5.58,.9-9.56,2.69-11.93,1.79-2.37,4.51-3.55,8.14-3.55h11.73Z"/><path class="cls-3" d="M473.84,240.15h-35.83v-4.81c0-5.58,.9-9.56,2.69-11.93,1.79-2.37,4.51-3.55,8.14-3.55h4.92v-5.37h-5.08c-6.12,0-10.57,1.59-13.39,4.78-2.82,3.19-4.23,8.55-4.23,16.07v10.43h49.85v-50.66h-7.07v45.05Z"/><path class="cls-3" d="M592.26,245.76v-31.28h-18.83c-6.11,0-10.57,1.59-13.39,4.78-2.82,3.19-4.23,8.55-4.23,16.07v4.81h-24.5v-4.81c0-7.53-1.41-12.89-4.23-16.07-2.82-3.19-7.28-4.78-13.39-4.78h-18.83v31.28h29.5v1.8c0,5.68-3.48,11.12-8.35,13.62-.23,.12-.46,.23-.69,.32-.43,.19-.88,.33-1.33,.47-1.38,.4-2.85,.57-4.4,.6-.9-.03-1.78-.1-2.61-.24-.42-.07-.81-.18-1.2-.28-.55-.14-1.09-.29-1.6-.47-.48-.18-.96-.37-1.41-.59-.33-.16-.63-.33-.94-.51-.51-.29-1.02-.58-1.48-.92-.62-.46-1.09-1.05-1.61-1.59-1.23,1.1-2.44,2.23-3.64,3.37,.44,.48,.88,.96,1.37,1.39h0c.92,.8,1.89,1.52,2.94,2.15,.05,.03,.1,.06,.16,.09,.99,.58,2,1.11,3.08,1.53,.36,.14,.74,.22,1.1,.34,.82,.27,1.63,.56,2.5,.72,1.29,.26,2.62,.4,3.99,.4h0c11.64,0,20.69-9.47,20.69-21.12v-1.1h61.34Zm-67.9-6.52v.91h-22.55v-20.3h11.73c3.63,0,6.35,1.18,8.14,3.55,1.79,2.37,2.69,6.35,2.69,11.93v3.9Zm60.95,.91h-22.55v-4.81c0-5.58,.9-9.56,2.69-11.93,1.78-2.37,4.51-3.55,8.14-3.55h11.73v20.3Z"/></g><g><path class="cls-3" d="M611.47,160.44h7.61c2,0,3.03-1,3.1-3l2.1-44.93,13.61,36.63c.67,1.86,2,2.8,4,2.8h6.41c2,0,3.37-.94,4.1-2.8l13.61-36.53,2,44.84c.07,2,1.1,3,3.1,3h10.86l-4.15-63.86c-.07-2-1.14-3-3.21-3h-10.61c-2,0-3.33,.93-4,2.8l-14.71,39.73-14.81-39.73c-.74-1.87-2.1-2.8-4.11-2.8h-10.61c-2.07,0-3.14,1-3.21,3l-3.9,60.85c-.07,2,.86,3,2.8,3Z"/><path class="cls-3" d="M695.95,160.44h43.13v-8.61c0-2-1-3-3-3h-28.32v-17.42h25.62c2,0,3-1,3-3v-5.2c0-2-1-3-3-3h-25.62v-15.01h27.32c2,0,3-1,3-3v-5.61c0-2-1-3-3-3h-39.13c-2,0-3,1-3,3v60.85c0,2,1,3,3,3Z"/><path class="cls-3" d="M752.7,160.44h8.8c2.01,0,3-1,3-3v-21.02c2.54,.53,4.81,.9,6.81,1.1l12.51,20.32c1.06,1.73,2.6,2.6,4.6,2.6h12.93l-16.43-24.22c9-2.87,13.51-9.84,13.51-20.92,0-4.54-.74-8.34-2.2-11.41-1.47-3.07-3.54-5.37-6.2-6.9-2.67-1.53-5.46-2.6-8.36-3.2-2.9-.6-6.26-.91-10.06-.91-6.94,0-13.28,.47-19.01,1.41-1.93,.33-2.9,1.5-2.9,3.5v59.65c0,2,1,3,3,3Zm11.81-56.34c1.6-.4,3.97-.61,7.11-.61,8.41,0,12.61,4.07,12.61,12.21,0,4.54-1.12,7.64-3.35,9.31-2.24,1.67-5.36,2.5-9.36,2.5-1.6,0-3.94-.21-7.01-.61v-22.81Z"/><path class="cls-3" d="M511.17,96.59c0-2-1-3-3-3h-11.91v63.85c0,2,1,3,3,3h36.83c2,0,3-1,3-3v-8.61h-27.92v-52.25Z"/><path class="cls-3" d="M466.85,93.59h-10.31c-2,0-3.34,.93-4,2.8l-21.22,61.25c-.67,1.87,0,2.8,2,2.8h9.11c2,0,3.3-.97,3.9-2.9l4.1-12.91,.02-.05c3.19,.97,6.72,1.55,10.75,1.55,4.24,0,7.97-.51,11.25-1.5h0l4.3,13.01c.6,1.87,1.9,2.8,3.91,2.8h11.53l-21.34-64.05c-.67-1.87-2-2.8-4-2.8Zm1.05,39.18c-1.8,.77-3.97,1.15-6.5,1.15s-4.71-.38-6.51-1.15c-.25-.1-.43-.25-.67-.37l7.32-25,7.12,24.95c-.26,.13-.48,.3-.76,.42Z"/><path class="cls-3" d="M582.45,96.39c-.67-1.87-2-2.8-4-2.8h-10.31c-2,0-3.34,.93-4,2.8l-21.22,61.25c-.67,1.87,0,2.8,2,2.8h9.11c2,0,3.3-.97,3.91-2.9l4.1-12.91v-.06c3.2,.97,6.73,1.55,10.77,1.55,4.23,0,7.97-.51,11.25-1.5h0l4.3,13.02c.6,1.87,1.91,2.8,3.91,2.8h11.53l-21.34-64.05Zm-2.95,36.37c-1.8,.77-3.97,1.15-6.5,1.15s-4.71-.38-6.51-1.15c-.25-.1-.43-.25-.66-.37l7.32-25,7.11,24.95c-.26,.13-.48,.3-.76,.42Z"/><path class="cls-3" d="M840.08,156.73l2.1-44.94,13.61,36.63c.67,1.86,2,2.8,4,2.8h6.4c2,0,3.37-.94,4.11-2.8l13.61-36.53,2,44.84c.07,2,1.1,3,3.11,3h10.83l-4.13-63.86c-.07-2-1.14-3-3.21-3h-10.61c-2,0-3.33,.93-4,2.8l-14.71,39.73-14.81-39.73c-.74-1.87-2.1-2.8-4.1-2.8h-10.61c-2.07,0-3.14,1-3.21,3l-3.9,60.85c-.07,2,.86,3,2.8,3h7.61c2,0,3.04-1,3.1-3Z"/><path class="cls-3" d="M987.12,95.87c0-2-1-3-3-3h-11.91v63.85c0,2,1,3,3,3h36.83c2,0,3-1,3-3v-8.61h-27.92v-52.25Z"/><path class="cls-3" d="M1037.37,148.12v-52.25c0-2-1-3-3-3h-11.91v63.85c0,2,1,3,3,3h36.83c2,0,3-1,3-3v-8.61h-27.92Z"/><path class="cls-3" d="M944.4,95.68c-.67-1.87-2-2.8-4-2.8h-10.31c-2,0-3.34,.93-4,2.8l-21.22,61.25c-.67,1.87,0,2.8,2,2.8h9.11c2,0,3.3-.97,3.9-2.9l4.1-12.91,.02-.05c3.19,.97,6.72,1.55,10.75,1.55,4.24,0,7.97-.51,11.25-1.5h0l4.3,13.01c.6,1.87,1.9,2.8,3.91,2.8h11.53l-.92-2.8-20.42-61.25Zm-2.95,36.37c-1.8,.77-3.97,1.15-6.5,1.15s-4.71-.38-6.51-1.15c-.25-.1-.43-.25-.67-.37l7.32-25,7.11,24.95c-.26,.13-.48,.3-.76,.42Z"/></g></g></g></g></g></svg>