<svg xmlns="http://www.w3.org/2000/svg" xmlns:xlink="http://www.w3.org/1999/xlink" version="1.1" width="256" height="256" viewBox="0 0 256 256" xml:space="preserve">
<desc>Created with Fabric.js 1.7.22</desc>
<defs>
</defs>
<g transform="translate(128 128) scale(0.72 0.72)" style="">
	<g style="stroke: none; stroke-width: 0; stroke-dasharray: none; stroke-linecap: butt; stroke-linejoin: miter; stroke-miterlimit: 10; fill: none; fill-rule: nonzero; opacity: 1;" transform="translate(-175.05 -175.05) scale(3.89 3.89)" >
	<path d="M 10.41 7.179 V 6.517 c -0.23 -0.033 -0.461 -0.049 -0.693 -0.051 c -2.836 0 -5.143 2.308 -5.143 5.144 c 0 1.74 0.869 3.28 2.196 4.211 c -0.888 -0.95 -1.382 -2.202 -1.381 -3.502 C 5.388 9.524 7.63 7.244 10.41 7.179" style="stroke: none; stroke-width: 1; stroke-dasharray: none; stroke-linecap: butt; stroke-linejoin: miter; stroke-miterlimit: 10; fill: rgb(0,242,234); fill-rule: nonzero; opacity: 1;" transform=" matrix(3.89 0 0 3.89 -1.9444444444444287 -1.9444444444444287) " stroke-linecap="round" />
	<path d="M 10.531 14.668 c 1.265 0 2.297 -1.007 2.345 -2.261 L 12.88 1.209 h 2.046 C 14.882 0.975 14.86 0.738 14.86 0.5 h -2.794 l -0.005 11.199 c -0.047 1.254 -1.079 2.26 -2.344 2.26 c -0.38 0 -0.754 -0.092 -1.09 -0.27 C 9.067 14.303 9.776 14.667 10.531 14.668 M 18.748 5.01 V 4.388 c -0.752 0.001 -1.488 -0.218 -2.117 -0.629 C 17.182 4.394 17.925 4.833 18.748 5.01" style="stroke: none; stroke-width: 1; stroke-dasharray: none; stroke-linecap: butt; stroke-linejoin: miter; stroke-miterlimit: 10; fill: rgb(0,242,234); fill-rule: nonzero; opacity: 1;" transform=" matrix(3.89 0 0 3.89 -1.9444444444444287 -1.9444444444444287) " stroke-linecap="round" />
	<path d="M 16.631 3.758 c -0.617 -0.706 -0.956 -1.611 -0.956 -2.548 h -0.749 C 15.122 2.256 15.738 3.177 16.631 3.758 M 9.717 9.261 C 8.42 9.263 7.37 10.313 7.368 11.61 c 0.001 0.873 0.485 1.674 1.259 2.079 c -0.289 -0.398 -0.444 -0.878 -0.444 -1.37 c 0.001 -1.297 1.052 -2.348 2.349 -2.349 c 0.242 0 0.474 0.04 0.693 0.109 V 7.226 c -0.23 -0.033 -0.461 -0.049 -0.693 -0.051 c -0.041 0 -0.081 0.002 -0.121 0.003 V 9.37 C 10.186 9.299 9.952 9.262 9.717 9.261" style="stroke: none; stroke-width: 1; stroke-dasharray: none; stroke-linecap: butt; stroke-linejoin: miter; stroke-miterlimit: 10; fill: rgb(255,0,79); fill-rule: nonzero; opacity: 1;" transform=" matrix(3.89 0 0 3.89 -1.9444444444444287 -1.9444444444444287) " stroke-linecap="round" />
	<path d="M 18.748 5.01 v 2.172 c -1.449 0 -2.791 -0.463 -3.888 -1.25 v 5.679 c 0 2.836 -2.307 5.143 -5.143 5.143 c -1.096 0 -2.112 -0.346 -2.947 -0.932 c 0.971 1.047 2.334 1.642 3.762 1.641 c 2.836 0 5.143 -2.307 5.143 -5.143 V 6.641 c 1.133 0.814 2.493 1.252 3.888 1.25 V 5.096 C 19.282 5.096 19.01 5.066 18.748 5.01" style="stroke: none; stroke-width: 1; stroke-dasharray: none; stroke-linecap: butt; stroke-linejoin: miter; stroke-miterlimit: 10; fill: rgb(255,0,79); fill-rule: nonzero; opacity: 1;" transform=" matrix(3.89 0 0 3.89 -1.9444444444444287 -1.9444444444444287) " stroke-linecap="round" />
	<path d="M 14.86 11.61 V 5.932 c 1.133 0.815 2.493 1.252 3.888 1.25 V 5.01 c -0.822 -0.177 -1.565 -0.617 -2.117 -1.252 c -0.893 -0.581 -1.509 -1.502 -1.705 -2.548 H 12.88 l -0.004 11.198 c -0.047 1.254 -1.079 2.261 -2.345 2.261 c -0.755 -0.001 -1.464 -0.365 -1.904 -0.979 c -0.773 -0.405 -1.258 -1.206 -1.259 -2.079 C 7.37 10.314 8.42 9.263 9.717 9.261 c 0.242 0 0.474 0.04 0.693 0.109 V 7.179 C 7.63 7.244 5.388 9.524 5.388 12.32 c 0 1.352 0.525 2.583 1.381 3.502 c 0.863 0.607 1.892 0.933 2.947 0.932 C 12.553 16.753 14.86 14.446 14.86 11.61" style="stroke: none; stroke-width: 1; stroke-dasharray: none; stroke-linecap: butt; stroke-linejoin: miter; stroke-miterlimit: 10; fill: rgb(0,0,0); fill-rule: nonzero; opacity: 1;" transform=" matrix(3.89 0 0 3.89 -1.9444444444444287 -1.9444444444444287) " stroke-linecap="round" />
	<path d="M 11.857 75.066 h 11.101 l -1.017 3.18 h -2.88 V 90 h -3.59 V 78.246 l -3.609 0.005 L 11.857 75.066 z" style="stroke: none; stroke-width: 1; stroke-dasharray: none; stroke-linecap: butt; stroke-linejoin: miter; stroke-miterlimit: 10; fill: rgb(0,0,0); fill-rule: nonzero; opacity: 1;" transform=" matrix(1 0 0 1 0 0) " stroke-linecap="round" />
	<path d="M 41.148 75.066 h 11.36 l -1.017 3.18 h -3.134 V 90 h -3.595 V 78.246 l -3.609 0.005 L 41.148 75.066 z" style="stroke: none; stroke-width: 1; stroke-dasharray: none; stroke-linecap: butt; stroke-linejoin: miter; stroke-miterlimit: 10; fill: rgb(0,0,0); fill-rule: nonzero; opacity: 1;" transform=" matrix(1 0 0 1 0 0) " stroke-linecap="round" />
	<path d="M 23.64 79.817 h 3.556 V 90 h -3.537 L 23.64 79.817 z" style="stroke: none; stroke-width: 1; stroke-dasharray: none; stroke-linecap: butt; stroke-linejoin: miter; stroke-miterlimit: 10; fill: rgb(0,0,0); fill-rule: nonzero; opacity: 1;" transform=" matrix(1 0 0 1 0 0) " stroke-linecap="round" />
	<path d="M 28.612 75.028 h 3.556 v 6.955 l 3.523 -3.463 h 4.243 l -4.459 4.328 L 40.467 90 H 36.55 l -3.331 -4.957 l -1.056 1.023 V 90 h -3.556 V 75.028 H 28.612 z" style="stroke: none; stroke-width: 1; stroke-dasharray: none; stroke-linecap: butt; stroke-linejoin: miter; stroke-miterlimit: 10; fill: rgb(0,0,0); fill-rule: nonzero; opacity: 1;" transform=" matrix(1 0 0 1 0 0) " stroke-linecap="round" />
	<path d="M 66.288 75.028 h 3.557 v 6.955 l 3.522 -3.463 h 4.243 l -4.459 4.328 L 78.143 90 h -3.912 L 70.9 85.043 l -1.056 1.023 V 90 h -3.557 V 75.028 z" style="stroke: none; stroke-width: 1; stroke-dasharray: none; stroke-linecap: butt; stroke-linejoin: miter; stroke-miterlimit: 10; fill: rgb(0,0,0); fill-rule: nonzero; opacity: 1;" transform=" matrix(1 0 0 1 0 0) " stroke-linecap="round" />
	<path d="M 25.416 78.654 c 0.989 0 1.79 -0.802 1.79 -1.792 c 0 -0.989 -0.801 -1.792 -1.79 -1.792 c -0.989 0 -1.79 0.802 -1.79 1.792 C 23.626 77.852 24.427 78.654 25.416 78.654 z" style="stroke: none; stroke-width: 1; stroke-dasharray: none; stroke-linecap: butt; stroke-linejoin: miter; stroke-miterlimit: 10; fill: rgb(0,0,0); fill-rule: nonzero; opacity: 1;" transform=" matrix(1 0 0 1 0 0) " stroke-linecap="round" />
	<path d="M 52.053 83.904 c 0 -3.204 2.472 -5.831 5.615 -6.076 c -0.158 -0.014 -0.374 -0.019 -0.533 -0.019 c -3.364 0 -6.091 2.728 -6.091 6.096 c 0 3.367 2.726 6.096 6.091 6.096 c 0.158 0 0.374 -0.01 0.533 -0.019 C 54.529 89.736 52.053 87.108 52.053 83.904 z" style="stroke: none; stroke-width: 1; stroke-dasharray: none; stroke-linecap: butt; stroke-linejoin: miter; stroke-miterlimit: 10; fill: rgb(37,244,238); fill-rule: nonzero; opacity: 1;" transform=" matrix(1 0 0 1 0 0) " stroke-linecap="round" />
	<path d="M 59.051 77.809 c -0.163 0 -0.379 0.01 -0.538 0.019 c 3.139 0.245 5.611 2.873 5.611 6.076 c 0 3.204 -2.472 5.831 -5.611 6.076 C 58.671 89.995 58.887 90 59.051 90 c 3.364 0 6.091 -2.728 6.091 -6.096 C 65.141 80.537 62.415 77.809 59.051 77.809 z" style="stroke: none; stroke-width: 1; stroke-dasharray: none; stroke-linecap: butt; stroke-linejoin: miter; stroke-miterlimit: 10; fill: rgb(254,44,85); fill-rule: nonzero; opacity: 1;" transform=" matrix(1 0 0 1 0 0) " stroke-linecap="round" />
	<path d="M 58.091 86.868 c -1.637 0 -2.961 -1.326 -2.961 -2.964 c 0 -1.638 1.325 -2.964 2.961 -2.964 c 1.637 0 2.961 1.326 2.961 2.964 C 61.052 85.542 59.722 86.868 58.091 86.868 z M 58.091 77.809 c -3.364 0 -6.09 2.728 -6.09 6.096 C 52 87.272 54.726 90 58.091 90 c 3.364 0 6.091 -2.728 6.091 -6.096 C 64.181 80.537 61.455 77.809 58.091 77.809 z" style="stroke: none; stroke-width: 1; stroke-dasharray: none; stroke-linecap: butt; stroke-linejoin: miter; stroke-miterlimit: 10; fill: rgb(0,0,0); fill-rule: nonzero; opacity: 1;" transform=" matrix(1 0 0 1 0 0) " stroke-linecap="round" />
</g>
</g>
</svg>